<?xml version="1.0" standalone="no"?>
<!DOCTYPE svg PUBLIC "-//W3C//DTD SVG 20010904//EN"
 "http://www.w3.org/TR/2001/REC-SVG-20010904/DTD/svg10.dtd">
<svg version="1.0" xmlns="http://www.w3.org/2000/svg"
 width="1500.000000pt" height="1300.000000pt" viewBox="0 0 1500.000000 1300.000000"
 preserveAspectRatio="xMidYMid meet">
<metadata>
Created by potrace 1.16, written by Peter Selinger 2001-2019
</metadata>
<g transform="translate(0.000000,1300.000000) scale(0.100000,-0.100000)"
fill="#000000" stroke="none">
<path d="M8471 9968 c-5 -18 -13 -75 -17 -126 -4 -51 -11 -95 -15 -98 -5 -3
-9 -27 -9 -54 0 -26 -3 -55 -6 -64 -6 -14 -91 -16 -863 -16 l-856 0 -40 -37
c-38 -35 -40 -39 -40 -98 0 -58 2 -64 37 -98 l37 -36 399 -3 c364 -3 400 -5
416 -20 10 -10 22 -18 27 -18 5 0 11 -11 15 -25 3 -14 10 -25 15 -25 5 0 9
-27 9 -60 0 -33 -4 -60 -9 -60 -5 0 -12 -11 -15 -25 -4 -14 -10 -25 -15 -25
-5 0 -17 -8 -27 -17 -16 -17 -74 -18 -871 -21 -469 -1 -853 -6 -853 -11 0 -5
-8 -11 -18 -13 -30 -8 -55 -74 -50 -129 5 -48 13 -59 75 -109 8 -6 397 -10
1059 -10 l1048 0 33 -22 c18 -13 36 -33 39 -45 4 -13 10 -20 15 -17 5 3 9 -24
9 -60 0 -37 -4 -66 -10 -66 -5 0 -10 -4 -10 -10 0 -15 -33 -50 -46 -50 -7 0
-14 -5 -16 -10 -2 -7 -152 -11 -427 -13 -365 -2 -425 -4 -432 -17 -4 -8 -17
-42 -29 -75 -13 -33 -26 -67 -30 -76 -5 -9 -11 -37 -15 -63 -4 -25 -11 -48
-15 -51 -5 -3 -12 -36 -16 -73 -3 -37 -11 -70 -16 -73 -5 -3 -12 -85 -15 -182
l-6 -177 -323 0 c-355 0 -362 -1 -397 -63 -18 -30 -24 -127 -8 -127 5 0 11
-10 14 -22 4 -13 21 -31 39 -40 30 -16 82 -18 579 -20 l546 -3 33 -34 c29 -28
34 -42 38 -91 5 -67 -17 -125 -51 -136 -12 -4 -25 -12 -29 -18 -5 -8 -222 -12
-768 -14 l-762 -2 -34 -37 c-30 -31 -34 -42 -34 -89 0 -65 21 -104 70 -127 35
-16 90 -17 882 -15 651 2 848 6 860 15 9 8 13 24 10 43 -4 28 -2 30 27 30 30
0 31 -1 31 -45 l0 -45 281 0 281 0 40 -41 c40 -41 40 -41 36 -109 -3 -50 -9
-74 -23 -90 -46 -50 -34 -50 -740 -52 -645 -3 -661 -3 -681 -23 -67 -67 -72
-148 -12 -209 47 -46 38 -46 1101 -46 551 0 1014 0 1029 0 17 0 39 -12 58 -30
17 -17 33 -30 35 -30 9 0 45 -40 45 -49 0 -5 7 -11 15 -15 8 -3 15 -12 15 -21
0 -8 4 -15 10 -15 5 0 13 -18 16 -40 4 -22 11 -43 15 -46 12 -7 12 -171 0
-178 -4 -3 -11 -21 -14 -40 -13 -81 -125 -212 -229 -268 -23 -13 -45 -26 -48
-30 -3 -3 -18 -10 -34 -14 -17 -4 -41 -13 -55 -20 -14 -8 -35 -14 -47 -14 -11
0 -24 -4 -30 -10 -15 -15 -178 -32 -299 -32 -119 0 -303 18 -320 31 -5 5 -36
12 -67 15 -32 4 -60 11 -63 16 -2 4 -25 11 -50 14 -24 4 -47 11 -50 16 -3 4
-23 11 -45 15 -22 4 -40 10 -40 15 0 5 -18 11 -40 15 -22 4 -40 11 -40 15 0 5
-13 11 -30 15 -16 4 -30 10 -30 15 0 4 -16 11 -35 14 -19 4 -35 11 -35 16 0 6
-5 10 -11 10 -14 0 -133 71 -137 82 -2 4 -9 8 -16 8 -7 0 -22 8 -34 18 -11 9
-30 24 -42 32 -12 8 -31 23 -42 33 -12 9 -24 17 -28 17 -4 0 -19 11 -33 24
-14 13 -40 34 -59 47 -36 25 -40 29 -77 59 -24 20 -38 20 -1166 18 -1247 -3
-1148 2 -1188 -60 -18 -30 -24 -128 -7 -128 6 0 10 -6 10 -13 0 -7 10 -21 23
-32 22 -20 43 -20 1015 -23 903 -2 996 -4 1020 -19 42 -26 82 -74 82 -99 0
-12 5 -26 10 -29 6 -3 10 -11 10 -16 0 -6 -4 -7 -10 -4 -6 4 -10 -6 -10 -24 0
-20 -11 -41 -32 -63 -52 -54 -93 -59 -514 -58 -275 1 -368 -2 -366 -11 7 -29
-20 -78 -52 -93 -50 -24 -76 -21 -76 8 0 19 7 25 35 30 25 5 35 12 37 26 0 11
1 26 2 32 1 15 -91 21 -100 7 -7 -12 -54 -11 -54 0 0 6 -17 8 -37 6 -21 -1
-81 -3 -134 -4 -85 -1 -99 -4 -123 -24 -14 -12 -30 -36 -35 -53 -13 -45 3
-128 31 -156 l23 -23 472 -3 c316 -2 473 -6 473 -13 0 -6 4 -8 9 -4 5 3 12 -3
15 -13 3 -10 24 -29 46 -43 22 -13 40 -27 40 -30 0 -3 26 -23 58 -45 55 -37
68 -47 95 -69 7 -5 34 -21 60 -35 26 -13 47 -28 47 -32 0 -5 9 -8 20 -8 10 0
23 -7 28 -16 5 -9 11 -15 13 -14 8 3 62 -21 57 -26 -3 -3 -251 -5 -551 -4
-362 0 -548 -3 -552 -10 -3 -5 -14 -10 -24 -10 -19 0 -61 -40 -61 -58 0 -7 -4
-12 -10 -12 -5 0 -10 -21 -10 -47 0 -48 15 -80 54 -119 19 -18 57 -19 1223
-24 l1203 -5 35 -28 c19 -15 35 -34 35 -42 0 -8 5 -15 10 -15 6 0 10 -25 10
-55 0 -30 -4 -55 -10 -55 -5 0 -10 -6 -10 -14 0 -7 -12 -26 -27 -42 l-27 -29
-257 -3 -257 -3 -10 -92 c-6 -51 -14 -104 -17 -119 l-7 -28 525 0 524 0 8 103
c4 56 10 107 13 112 6 9 23 127 38 273 5 46 8 52 29 52 13 0 26 4 29 9 4 5 30
12 59 16 28 4 57 11 62 15 6 4 29 11 52 15 24 4 45 10 48 15 3 4 20 11 39 14
20 4 48 13 63 21 15 8 35 15 43 15 8 0 24 7 34 15 11 8 28 15 38 15 10 0 18 4
18 9 0 5 12 12 26 15 14 4 44 18 65 32 22 14 50 29 62 34 23 10 58 31 67 40 3
3 22 16 42 30 21 14 38 28 38 33 0 4 6 7 13 7 8 0 22 9 32 20 10 11 22 20 27
20 14 0 231 219 254 255 10 17 24 34 31 38 7 4 13 12 13 18 0 5 5 15 10 22 41
48 50 62 50 74 0 7 4 13 9 13 5 0 12 11 15 25 4 14 10 25 15 25 5 0 12 14 16
30 4 17 10 30 15 30 5 0 11 14 15 30 4 17 10 30 15 30 4 0 11 16 14 35 4 19
11 35 16 35 6 0 10 10 10 23 0 12 7 35 16 52 8 16 18 48 21 72 3 24 9 43 13
43 4 0 11 25 15 57 4 31 11 63 16 72 7 14 23 151 36 329 3 35 0 68 -5 75 -5 7
-12 55 -16 107 -4 52 -11 99 -16 105 -5 6 -12 30 -16 53 -4 23 -10 42 -15 42
-5 0 -9 8 -9 18 -1 9 -9 35 -20 57 -11 22 -19 45 -20 52 0 6 -3 13 -7 15 -9 3
-53 64 -53 73 0 25 -206 224 -269 259 -9 5 -18 12 -21 15 -7 8 -40 29 -70 43
-14 7 -27 15 -30 18 -10 10 -157 80 -168 80 -7 0 -12 5 -12 10 0 6 -8 10 -17
10 -10 1 -36 9 -58 20 -22 11 -48 19 -57 20 -10 0 -18 4 -18 9 0 5 -20 12 -45
15 -25 4 -45 11 -45 16 0 4 -18 11 -40 15 -22 4 -42 10 -45 15 -3 4 -25 11
-50 14 -24 4 -47 11 -50 16 -3 4 -28 11 -55 15 -28 4 -50 10 -50 15 0 4 -22
10 -50 14 -27 4 -52 10 -54 15 -3 5 -26 12 -51 15 -24 4 -47 11 -50 15 -2 5
-27 11 -54 15 -28 4 -53 10 -55 15 -3 5 -26 12 -51 15 -25 4 -45 11 -45 17 0
5 -10 9 -22 9 -13 0 -35 6 -49 14 -14 7 -42 16 -62 20 -21 4 -37 11 -37 16 0
6 -7 10 -16 10 -8 0 -36 10 -62 22 -26 12 -50 21 -54 20 -5 -1 -8 1 -8 6 0 4
-20 18 -45 32 -25 14 -45 28 -45 32 0 5 -5 8 -12 8 -35 0 -148 158 -148 208 0
11 -4 24 -10 27 -12 8 -13 135 -1 135 5 0 11 23 15 50 4 28 11 50 15 50 5 0
12 12 15 26 8 30 13 37 91 117 33 34 83 73 110 87 28 14 52 28 55 32 3 3 19
10 35 14 17 4 33 11 36 16 3 5 29 11 57 15 29 3 52 9 52 13 0 5 39 11 88 15
48 3 107 10 131 16 31 7 78 7 155 -1 231 -24 373 -46 391 -60 6 -4 29 -11 52
-15 24 -4 45 -10 48 -15 3 -4 21 -11 40 -14 19 -4 35 -11 35 -16 0 -6 7 -10
16 -10 9 0 32 -7 52 -16 74 -32 127 -58 132 -63 3 -3 26 -16 53 -29 26 -13 47
-28 47 -33 0 -5 5 -9 12 -9 15 0 168 -101 168 -112 0 -4 5 -8 11 -8 13 0 91
-62 140 -111 20 -20 43 -39 50 -41 12 -4 49 31 49 47 0 3 11 18 25 33 14 15
28 37 31 49 4 13 10 21 14 18 4 -3 11 7 14 20 4 15 11 23 18 19 6 -4 9 -1 6 7
-4 13 8 32 45 71 9 10 17 22 17 26 0 8 8 19 49 68 5 6 12 20 15 31 4 12 13 24
21 27 8 3 15 12 15 20 0 8 3 16 8 18 8 3 19 19 113 158 35 52 67 97 71 98 5 2
8 10 8 18 0 8 6 17 14 20 8 3 17 16 20 30 4 13 11 24 16 24 6 0 10 7 10 15 0
9 7 18 15 21 8 4 15 10 15 16 0 9 -71 78 -81 78 -5 0 -22 13 -66 50 -7 5 -15
10 -18 10 -6 0 -67 41 -75 51 -3 4 -15 9 -27 13 -13 4 -23 12 -23 17 0 5 -7 9
-15 9 -9 0 -18 6 -21 14 -3 8 -17 17 -32 21 -15 4 -29 10 -32 13 -4 6 -108 61
-135 71 -5 2 3 -11 20 -28 l29 -31 -23 -23 -22 -22 -19 25 c-10 14 -44 51 -75
83 -44 44 -62 56 -78 52 -12 -2 -16 -2 -9 1 16 7 -33 39 -88 59 -33 12 -38 11
-57 -11 -22 -25 -57 -32 -68 -14 -3 6 1 13 9 16 9 3 13 10 10 15 -3 5 1 9 8 9
8 1 6 6 -6 15 -24 18 -66 19 -101 3 -16 -7 -29 -8 -35 -2 -6 6 -2 10 12 11 44
4 39 21 -9 28 -26 4 -52 10 -58 13 -9 6 -38 13 -155 38 l-25 6 10 106 c5 59
13 112 16 117 4 6 10 56 14 113 4 56 11 102 16 102 5 0 9 23 9 50 l0 50 -514
0 -514 0 -11 -32z"/>
<path d="M5463 9582 c-42 -36 -71 -108 -55 -133 7 -10 12 -26 12 -34 0 -9 15
-29 32 -46 l32 -29 423 0 c275 0 423 3 423 10 0 6 6 10 13 10 44 0 73 119 43
181 -33 69 -30 69 -485 69 l-407 0 -31 -28z"/>
<path d="M5130 7680 c0 -5 -6 -10 -13 -10 -40 0 -73 -93 -55 -157 11 -39 36
-73 55 -73 7 0 13 -4 13 -10 0 -6 124 -10 353 -10 l352 0 37 33 c28 25 37 40
39 72 5 76 0 93 -38 130 l-36 35 -354 0 c-229 0 -353 -4 -353 -10z"/>
<path d="M4350 5414 c-31 -9 -60 -71 -60 -129 0 -30 5 -55 10 -55 6 0 10 -6
10 -13 0 -7 10 -21 23 -32 21 -19 38 -20 387 -20 364 0 365 0 387 22 12 12 25
34 29 48 3 14 10 28 15 31 12 7 11 54 -1 54 -5 0 -10 9 -10 21 0 11 -13 34
-29 50 l-29 29 -359 -1 c-197 -1 -365 -3 -373 -5z"/>
<path d="M0 500 l0 -500 7500 0 7500 0 0 500 0 500 -7500 0 -7500 0 0 -500z"/>
</g>
</svg>
